HIERARCHY
ROOT Hips
{
  OFFSET -415.057 92.5527 812.971
  CHANNELS 6 Xposition Yposition Zposition Zrotation Xrotation Yrotation
  JOINT Spine
  {
    OFFSET -2.0673e-05 8 2.05814e-05
    CHANNELS 6 Xposition Yposition Zposition Zrotation Xrotation Yrotation
    JOINT Spine1
    {
      OFFSET 0 8 0
      CHANNELS 6 Xposition Yposition Zposition Zrotation Xrotation Yrotation
      JOINT Spine2
      {
        OFFSET 0 8 0
        CHANNELS 6 Xposition Yposition Zposition Zrotation Xrotation Yrotation
        JOINT Spine3
        {
          OFFSET 0 8 0
          CHANNELS 6 Xposition Yposition Zposition Zrotation Xrotation Yrotation
          JOINT Neck
          {
            OFFSET -0.000177258 17 -0.000134615
            CHANNELS 6 Xposition Yposition Zposition Zrotation Xrotation Yrotation
            JOINT Head
            {
              OFFSET 0 10.8 1.95367e-05
              CHANNELS 6 Xposition Yposition Zposition Zrotation Xrotation Yrotation
              End Site
              {
                OFFSET 0 20.25 0
              }
            }
          }
          JOINT LeftShoulder
          {
            OFFSET 4.99981 17.0001 -0.000127893
            CHANNELS 6 Xposition Yposition Zposition Zrotation Xrotation Yrotation
            JOINT LeftShoulder2
            {
              OFFSET 6.45 0 0
              CHANNELS 6 Xposition Yposition Zposition Zrotation Xrotation Yrotation
              JOINT LeftArm
              {
                OFFSET 6.45003 -0.000123265 -0.000845143
                CHANNELS 6 Xposition Yposition Zposition Zrotation Xrotation Yrotation
                JOINT LeftForeArm
                {
                  OFFSET 0 -32.4 -1.99993
                  CHANNELS 6 Xposition Yposition Zposition Zrotation Xrotation Yrotation
                  JOINT LeftHand
                  {
                    OFFSET -4.07646e-05 -25.65 2
                    CHANNELS 6 Xposition Yposition Zposition Zrotation Xrotation Yrotation
                    JOINT LeftHandThumb1
                    {
                      OFFSET -0.49998 -1.49996 2.65001
                      CHANNELS 6 Xposition Yposition Zposition Zrotation Xrotation Yrotation
                      JOINT LeftHandThumb2
                      {
                        OFFSET -1.26972e-05 -3.79998 3.70003
                        CHANNELS 6 Xposition Yposition Zposition Zrotation Xrotation Yrotation
                        JOINT LeftHandThumb3
                        {
                          OFFSET 2.8111e-05 -3 2.69995
                          CHANNELS 6 Xposition Yposition Zposition Zrotation Xrotation Yrotation
                          End Site
                          {
                            OFFSET -1.01356e-05 -2.3 1.79999
                          }
                        }
                      }
                    }
                    JOINT LeftHandIndex
                    {
                      OFFSET 5.09962e-05 -1.90004 1.59998
                      CHANNELS 6 Xposition Yposition Zposition Zrotation Xrotation Yrotation
                      JOINT LeftHandIndex1
                      {
                        OFFSET 0 -8.29999 1.90002
                        CHANNELS 6 Xposition Yposition Zposition Zrotation Xrotation Yrotation
                        JOINT LeftHandIndex2
                        {
                          OFFSET -1.7128e-05 -4.49994 -2.07597e-05
                          CHANNELS 6 Xposition Yposition Zposition Zrotation Xrotation Yrotation
                          JOINT LeftHandIndex3
                          {
                            OFFSET -1.5072e-05 -3.39999 0
                            CHANNELS 6 Xposition Yposition Zposition Zrotation Xrotation Yrotation
                            End Site
                            {
                              OFFSET -3.76006e-05 -2.59995 1.88611e-05
                            }
                          }
                        }
                      }
                    }
                    JOINT LeftHandMiddle
                    {
                      OFFSET -0.249979 -2.19997 0.399999
                      CHANNELS 6 Xposition Yposition Zposition Zrotation Xrotation Yrotation
                      JOINT LeftHandMiddle1
                      {
                        OFFSET 0 -8.29994 0.999966
                        CHANNELS 6 Xposition Yposition Zposition Zrotation Xrotation Yrotation
                        JOINT LeftHandMiddle2
                        {
                          OFFSET -2.11651e-05 -4.65001 3.47807e-05
                          CHANNELS 6 Xposition Yposition Zposition Zrotation Xrotation Yrotation
                          JOINT LeftHandMiddle3
                          {
                            OFFSET -2.32051e-05 -3.30002 1.17618e-05
                            CHANNELS 6 Xposition Yposition Zposition Zrotation Xrotation Yrotation
                            End Site
                            {
                              OFFSET -4.63627e-05 -2.69999 -1.81122e-05
                            }
                          }
                        }
                      }
                    }
                    JOINT LeftHandRing
                    {
                      OFFSET -0.499986 -2.15002 -0.800009
                      CHANNELS 6 Xposition Yposition Zposition Zrotation Xrotation Yrotation
                      JOINT LeftHandRing1
                      {
                        OFFSET 1.95477e-05 -7.74999 -0.200004
                        CHANNELS 6 Xposition Yposition Zposition Zrotation Xrotation Yrotation
                        JOINT LeftHandRing2
                        {
                          OFFSET -1.20275e-05 -3.80006 0
                          CHANNELS 6 Xposition Yposition Zposition Zrotation Xrotation Yrotation
                          JOINT LeftHandRing3
                          {
                            OFFSET 0 -3.4 0
                            CHANNELS 6 Xposition Yposition Zposition Zrotation Xrotation Yrotation
                            End Site
                            {
                              OFFSET -7.33533e-05 -2.60005 2.21947e-05
                            }
                          }
                        }
                      }
                    }
                    JOINT LeftHandPinky
                    {
                      OFFSET -0.749983 -1.74998 -1.85003
                      CHANNELS 6 Xposition Yposition Zposition Zrotation Xrotation Yrotation
                      JOINT LeftHandPinky1
                      {
                        OFFSET -3.90435e-05 -7.15003 -0.999961
                        CHANNELS 6 Xposition Yposition Zposition Zrotation Xrotation Yrotation
                        JOINT LeftHandPinky2
                        {
                          OFFSET 1.52852e-05 -3.0002 0
                          CHANNELS 6 Xposition Yposition Zposition Zrotation Xrotation Yrotation
                          JOINT LeftHandPinky3
                          {
                            OFFSET -2.12876e-05 -2.35001 -1.13627e-05
                            CHANNELS 6 Xposition Yposition Zposition Zrotation Xrotation Yrotation
                            End Site
                            {
                              OFFSET 1.2118e-05 -2.09999 0
                            }
                          }
                        }
                      }
                    }
                  }
                }
              }
            }
          }
          JOINT RightShoulder
          {
            OFFSET -5.00019 16.9999 -7.85609e-05
            CHANNELS 6 Xposition Yposition Zposition Zrotation Xrotation Yrotation
            JOINT RightShoulder2
            {
              OFFSET -6.45 0 0
              CHANNELS 6 Xposition Yposition Zposition Zrotation Xrotation Yrotation
              JOINT RightArm
              {
                OFFSET -6.44998 0 -0.000772972
                CHANNELS 6 Xposition Yposition Zposition Zrotation Xrotation Yrotation
                JOINT RightForeArm
                {
                  OFFSET -4.98389e-05 -32.4 -2.00002
                  CHANNELS 6 Xposition Yposition Zposition Zrotation Xrotation Yrotation
                  JOINT RightHand
                  {
                    OFFSET 5.49621e-05 -25.65 1.99999
                    CHANNELS 6 Xposition Yposition Zposition Zrotation Xrotation Yrotation
                    JOINT RightHandThumb1
                    {
                      OFFSET 0.499965 -1.50001 2.64998
                      CHANNELS 6 Xposition Yposition Zposition Zrotation Xrotation Yrotation
                      JOINT RightHandThumb2
                      {
                        OFFSET 0 -3.80005 3.70001
                        CHANNELS 6 Xposition Yposition Zposition Zrotation Xrotation Yrotation
                        JOINT RightHandThumb3
                        {
                          OFFSET -4.47025e-05 -3 2.69999
                          CHANNELS 6 Xposition Yposition Zposition Zrotation Xrotation Yrotation
                          End Site
                          {
                            OFFSET 0 -2.30001 1.80002
                          }
                        }
                      }
                    }
                    JOINT RightHandIndex
                    {
                      OFFSET 5.53388e-05 -1.89995 1.6
                      CHANNELS 6 Xposition Yposition Zposition Zrotation Xrotation Yrotation
                      JOINT RightHandIndex1
                      {
                        OFFSET -7.63686e-05 -8.30005 1.89995
                        CHANNELS 6 Xposition Yposition Zposition Zrotation Xrotation Yrotation
                        JOINT RightHandIndex2
                        {
                          OFFSET 0 -4.49999 6.23942e-05
                          CHANNELS 6 Xposition Yposition Zposition Zrotation Xrotation Yrotation
                          JOINT RightHandIndex3
                          {
                            OFFSET 5.2936e-05 -3.4 -2.68922e-05
                            CHANNELS 6 Xposition Yposition Zposition Zrotation Xrotation Yrotation
                            End Site
                            {
                              OFFSET -4.08845e-05 -2.59998 0
                            }
                          }
                        }
                      }
                    }
                    JOINT RightHandMiddle
                    {
                      OFFSET 0.249979 -2.2 0.40003
                      CHANNELS 6 Xposition Yposition Zposition Zrotation Xrotation Yrotation
                      JOINT RightHandMiddle1
                      {
                        OFFSET 3.8132e-05 -8.29995 0.999984
                        CHANNELS 6 Xposition Yposition Zposition Zrotation Xrotation Yrotation
                        JOINT RightHandMiddle2
                        {
                          OFFSET -4.04555e-05 -4.64999 -4.82606e-05
                          CHANNELS 6 Xposition Yposition Zposition Zrotation Xrotation Yrotation
                          JOINT RightHandMiddle3
                          {
                            OFFSET 3.2458e-05 -3.29999 1.15341e-05
                            CHANNELS 6 Xposition Yposition Zposition Zrotation Xrotation Yrotation
                            End Site
                            {
                              OFFSET -4.51106e-05 -2.69994 8.05301e-05
                            }
                          }
                        }
                      }
                    }
                    JOINT RightHandRing
                    {
                      OFFSET 0.499994 -2.15001 -0.800021
                      CHANNELS 6 Xposition Yposition Zposition Zrotation Xrotation Yrotation
                      JOINT RightHandRing1
                      {
                        OFFSET 0 -7.75002 -0.200039
                        CHANNELS 6 Xposition Yposition Zposition Zrotation Xrotation Yrotation
                        JOINT RightHandRing2
                        {
                          OFFSET 3.99138e-05 -3.8 3.37551e-05
                          CHANNELS 6 Xposition Yposition Zposition Zrotation Xrotation Yrotation
                          JOINT RightHandRing3
                          {
                            OFFSET -2.3749e-05 -3.39998 -1.16923e-05
                            CHANNELS 6 Xposition Yposition Zposition Zrotation Xrotation Yrotation
                            End Site
                            {
                              OFFSET 0 -2.59997 -2.03968e-05
                            }
                          }
                        }
                      }
                    }
                    JOINT RightHandPinky
                    {
                      OFFSET 0.750043 -1.74993 -1.84998
                      CHANNELS 6 Xposition Yposition Zposition Zrotation Xrotation Yrotation
                      JOINT RightHandPinky1
                      {
                        OFFSET -7.54386e-05 -7.15004 -0.999978
                        CHANNELS 6 Xposition Yposition Zposition Zrotation Xrotation Yrotation
                        JOINT RightHandPinky2
                        {
                          OFFSET 3.92758e-05 -3 2.10491e-05
                          CHANNELS 6 Xposition Yposition Zposition Zrotation Xrotation Yrotation
                          JOINT RightHandPinky3
                          {
                            OFFSET -3.11904e-05 -2.35 0
                            CHANNELS 6 Xposition Yposition Zposition Zrotation Xrotation Yrotation
                            End Site
                            {
                              OFFSET 1.34437e-05 -2.0999 0
                            }
                          }
                        }
                      }
                    }
                  }
                }
              }
            }
          }
        }
      }
    }
  }
  JOINT LeftUpLeg
  {
    OFFSET 7.99999 0 2.49177e-05
    CHANNELS 6 Xposition Yposition Zposition Zrotation Xrotation Yrotation
    JOINT LeftLeg
    {
      OFFSET 2.69094e-05 -45 -1.00004
      CHANNELS 6 Xposition Yposition Zposition Zrotation Xrotation Yrotation
      JOINT LeftFoot
      {
        OFFSET 0 -41.0001 -1.99999
        CHANNELS 6 Xposition Yposition Zposition Zrotation Xrotation Yrotation
        JOINT LeftToeBase
        {
          OFFSET 1.10033e-05 -7.5 12.5
          CHANNELS 6 Xposition Yposition Zposition Zrotation Xrotation Yrotation
          JOINT LeftFootToe
          {
            OFFSET 0 0 4
            CHANNELS 6 Xposition Yposition Zposition Zrotation Xrotation Yrotation
            End Site
            {
              OFFSET 0 0 0
            }
          }
        }
      }
    }
  }
  JOINT RightUpLeg
  {
    OFFSET -7.99999 0 -2.49177e-05
    CHANNELS 6 Xposition Yposition Zposition Zrotation Xrotation Yrotation
    JOINT RightLeg
    {
      OFFSET 0 -45 -0.999963
      CHANNELS 6 Xposition Yposition Zposition Zrotation Xrotation Yrotation
      JOINT RightFoot
      {
        OFFSET 0 -41.0001 -2.00004
        CHANNELS 6 Xposition Yposition Zposition Zrotation Xrotation Yrotation
        JOINT RightToeBase
        {
          OFFSET 0 -7.50001 12.5
          CHANNELS 6 Xposition Yposition Zposition Zrotation Xrotation Yrotation
          JOINT RightFootToe
          {
            OFFSET 0 0 4
            CHANNELS 6 Xposition Yposition Zposition Zrotation Xrotation Yrotation
            End Site
            {
              OFFSET 0 0 0
            }
          }
        }
      }
    }
  }
}
MOTION
Frames:	2
Frame Time:	0.0111111
-404.8 89.9391 806.845 2.839 6.07719 -104.214 -1.54449e-05 8 3.39104e-06 -2.64799 15.9527 20.2697 3.05323e-06 8 -2.13291e-05 -3.32371 4.31062 7.79193 7.34485e-06 8 3.403e-05 -1.58709 2.21127 3.86759 -1.13687e-13 8 0 -1.58319 2.20353 3.85532 -0.000172248 17 -0.00025595 -6.61514 -0.384212 28.1095 3.49616e-05 10.8 1.10897e-05 -14.2002 -6.30299 68.9093 4.9998 17 -0.000193509 -13.6603 -3.65247 4.83231 6.45 0 0 -0.463293 1.56299 0.584741 6.45002 0.000119746 0.000350531 -123.562 -75.9983 -151.8 -4.90135e-06 -32.4 -1.99695 -33.5916 -16.8512 -34.0139 -1.03261e-05 -25.65 2 -43.1118 1.07061 -56.6763 -0.499992 -1.49998 2.64999 31.3234 12.1447 2.32845 -4.13717e-07 -3.79998 3.70004 -0.168955 15.4093 0.00658493 3.5402e-07 -3.00004 2.69995 -0.00258532 14.3038 -0.00368482 1.35361e-05 -1.90009 1.59998 6.18382e-06 -8.212e-06 -5.57194e-06 6.88047e-06 -8.29995 1.9 -6.75517 20.631 1.47418 -2.07565e-06 -4.49996 -5.41051e-06 -3.35489 0.00431634 0.00495387 -4.28726e-05 -3.4239 2.15166e-05 0.00115133 0.00454821 0.00651028 -0.249993 -2.2 0.4 6.18382e-06 -8.212e-06 -5.57194e-06 -1.49941e-05 -8.29998 0.999993 -6.2323 10.3743 0.879415 -2.49054e-09 -4.64997 1.1277e-06 -0.000468452 -0.185305 -0.156302 -2.56664e-05 -3.30004 1.15377e-05 -0.000348797 -0.174356 -0.151946 -0.500014 -2.15006 -0.800018 6.18382e-06 -8.212e-06 -5.57194e-06 -8.50461e-06 -7.75001 -0.199999 -1.98078 6.51657 0.227555 1.00437e-05 -3.84935 9.02652e-07 -1.35903 -0.0350514 0.147629 -1.27827e-05 -3.40003 1.35011e-05 -4.86772e-06 -0.0293452 0.141978 -0.75002 -1.75003 -1.85001 6.18382e-06 -8.212e-06 -5.57194e-06 -1.75934e-05 -7.15 -0.999996 -0.354402 5.10115 0.0717345 1.19021e-05 -3.00609 8.67009e-07 -14.4712 -0.0106027 0.00903681 -1.80488e-05 -2.35002 5.30195e-06 -0.398517 -0.00843446 0.0119046 -5.0002 16.9999 -0.000337222 -12.7257 -7.78263 3.31225 -6.45 0 0 -0.96509 1.94679 -4.60387 -6.44999 0.000195905 -0.000384437 14.1867 3.69955 -7.19926 -7.16054e-05 -32.4 -1.99994 132.296 -70.8509 157.788 5.84589e-05 -25.65 1.99999 9.70538 39.3963 -10.877 0.499998 -1.50004 2.65002 -112.706 9.96878 -23.4304 -5.89644e-05 -3.80006 3.70003 0.645759 29.655 -0.0850843 -8.6633e-06 -3 2.69999 0.138845 33.2746 -0.628774 6.03382e-05 -1.89997 1.6 1.20352e-05 1.36138e-06 -7.54789e-07 -6.11137e-05 -8.30001 1.89996 5.70778 -11.7267 0.514333 -3.22397e-05 -4.49998 4.85188e-05 5.3523e-05 0.0647254 0.0191323 4.50079e-05 -3.39999 -1.6755e-05 -4.35223e-05 0.0247352 0.0371333 0.249969 -2.19998 0.400045 1.20352e-05 1.36138e-06 -7.54789e-07 2.38203e-05 -8.29996 0.999989 19.9837 -6.13776 0.13447 -1.20684e-05 -4.65003 -2.47509e-05 91.4446 0.00965647 0.0416632 3.49888e-05 -3.29996 -1.01941e-05 83.7105 0.125344 -0.00581187 0.499994 -2.15003 -0.799997 1.20352e-05 1.36138e-06 -7.54789e-07 3.32831e-05 -7.75001 -0.200036 45.6599 -8.77433 0.78616 4.06855e-06 -3.8 1.66202e-05 77.1271 -0.185674 -0.499999 -2.5278e-05 -3.39995 -9.48401e-06 62.2909 -0.854692 -0.108375 0.750031 -1.74996 -1.84996 1.20352e-05 1.36138e-06 -7.54789e-07 -3.73632e-05 -7.15 -0.999996 61.0837 -10.3899 1.31838 -5.09541e-06 -2.99998 2.36568e-05 53.0372 -0.0245573 -0.288987 -1.51668e-05 -2.35003 -1.12032e-05 36.6989 -0.139612 -0.158515 8.00001 7.23545e-08 -1.02509e-05 16.6387 -28.7685 21.2078 6.78584e-06 -45 -1.00005 0.469677 0.336992 9.99924 4.7885e-06 -41 -2.00001 5.22586 28.2952 -35.833 -1.91192e-05 -7.5 12.5 -1.9815e-07 -4.21757e-07 -3.33842e-06 0 0 4 0.908079 -11.9886 -9.43462 -8.00001 -7.23545e-08 1.02509e-05 11.5422 -10.6573 8.88853 8.32895e-06 -45 -1.00001 -0.168585 25.5246 -11.0509 -5.4844e-06 -41 -2.00006 6.51831 -18.4665 -29.8752 2.94971e-05 -7.5 12.5 -0.00018158 0.169924 1.53289e-05 1.13687e-13 1.42109e-14 4 -0.584447 13.766 -8.83339 
-404.829 89.9077 806.847 2.85787 6.0932 -104.083 -1.54449e-05 8 3.39104e-06 -2.71453 15.9864 20.2498 3.05323e-06 8 -2.13291e-05 -3.32953 4.31641 7.76754 7.34485e-06 8 3.403e-05 -1.58926 2.21287 3.85624 0 8 0 -1.58301 2.20415 3.84287 -0.000172248 17 -0.00025595 -6.61571 -0.388429 28.0623 3.49616e-05 10.8 1.10897e-05 -14.2027 -6.30167 68.7792 4.9998 17 -0.000193509 -13.612 -3.65082 4.78778 6.45 0 0 -0.476978 1.5562 0.58469 6.45002 0.000119746 0.000350531 -123.136 -75.9196 -151.275 -4.90135e-06 -32.4 -1.99695 -33.1346 -16.8641 -33.7415 -1.03261e-05 -25.65 2 -42.7032 1.35654 -56.3466 -0.499992 -1.49998 2.64999 30.8885 11.8817 2.53431 -4.13717e-07 -3.79998 3.70004 -0.174528 14.865 0.00658073 3.5402e-07 -3.00004 2.69995 -0.00270819 14.0923 -0.00352761 1.35361e-05 -1.90009 1.59998 6.18382e-06 -8.212e-06 -5.57194e-06 6.88047e-06 -8.29995 1.9 -6.73263 20.6037 1.4662 -2.07565e-06 -4.49996 -5.41051e-06 -3.35503 0.00425131 0.00457293 -4.28726e-05 -3.4239 2.15166e-05 -0.000814755 0.00448783 0.00600789 -0.249993 -2.2 0.4 6.18382e-06 -8.212e-06 -5.57194e-06 -1.49941e-05 -8.29998 0.999993 -6.21846 10.3863 0.875826 -2.49054e-09 -4.64997 1.1277e-06 -0.000466118 -0.184866 -0.15595 -2.56664e-05 -3.30004 1.15377e-05 -0.000345776 -0.17392 -0.151331 -0.500014 -2.15006 -0.800018 6.18382e-06 -8.212e-06 -5.57194e-06 -8.50461e-06 -7.75001 -0.199999 -1.99017 6.58411 0.231726 1.00437e-05 -3.84935 9.02652e-07 -1.35903 -0.036286 0.146639 -1.27827e-05 -3.40003 1.35011e-05 -3.65469e-06 -0.0300313 0.141049 -0.75002 -1.75003 -1.85001 6.18382e-06 -8.212e-06 -5.57194e-06 -1.75934e-05 -7.15 -0.999996 -0.37563 5.22972 0.0784345 1.19021e-05 -3.00609 8.6701e-07 -14.4709 -0.0136431 0.0099078 -1.80488e-05 -2.35002 5.30195e-06 -0.641234 -0.0110645 0.0126864 -5.0002 16.9999 -0.000337222 -12.6891 -7.76941 3.14458 -6.45 0 0 -0.970865 1.95713 -4.60406 -6.44999 0.000195905 -0.000384437 14.2236 3.74446 -7.07488 -7.16054e-05 -32.4 -1.99994 129.35 -71.2177 153.51 5.84589e-05 -25.65 1.99999 11.6341 35.5322 -13.8469 0.499998 -1.50004 2.65002 -117.514 4.58711 -25.1356 -5.89644e-05 -3.80006 3.70003 0.670915 29.3135 -0.00243762 -8.6633e-06 -3 2.69999 0.135706 32.9285 -0.636044 6.03382e-05 -1.89997 1.6 1.20352e-05 1.36138e-06 -7.54789e-07 -6.11137e-05 -8.30001 1.89996 7.07806 -11.4664 0.635031 -3.22397e-05 -4.49998 4.85188e-05 5.35847e-05 0.0646688 0.0192448 4.50079e-05 -3.39999 -1.6755e-05 -4.24672e-05 0.0233907 0.0371402 0.249969 -2.19998 0.400045 1.20352e-05 1.36138e-06 -7.54789e-07 2.38203e-05 -8.29996 0.999989 21.686 -5.51327 0.0569761 -1.20684e-05 -4.65003 -2.47509e-05 91.4679 0.00675219 0.0260157 3.49888e-05 -3.29996 -1.01941e-05 83.794 0.0789696 -0.00645919 0.499994 -2.15003 -0.799997 1.20352e-05 1.36138e-06 -7.54789e-07 3.32831e-05 -7.75001 -0.200036 47.8946 -8.35147 0.593183 4.06855e-06 -3.8 1.66202e-05 75.0351 -0.201448 -0.484431 -2.5278e-05 -3.39995 -9.48401e-06 59.0704 -0.774683 -0.100307 0.750031 -1.74996 -1.84996 1.20352e-05 1.36138e-06 -7.54789e-07 -3.73632e-05 -7.15 -0.999996 63.685 -9.68897 0.768319 -5.09541e-06 -2.99998 2.36568e-05 51.8253 -0.037397 -0.263578 -1.51668e-05 -2.35003 -1.12032e-05 35.8131 -0.130989 -0.135442 8.00001 7.23545e-08 -1.02509e-05 16.5744 -28.8033 21.4564 6.78584e-06 -45 -1.00005 0.465947 0.311221 9.94433 4.7885e-06 -41 -2.00001 5.42388 28.2634 -35.8622 -1.91192e-05 -7.5 12.5 -1.9815e-07 -4.21757e-07 -3.33842e-06 0 -8.88178e-16 4 0.813863 -12.0466 -9.79452 -8.00001 -7.23545e-08 1.02509e-05 11.5497 -10.728 8.91374 8.32895e-06 -45 -1.00001 -0.15989 25.6882 -11.1131 -5.4844e-06 -41 -2.00006 6.58104 -18.5728 -29.7595 2.94971e-05 -7.5 12.5 -0.00018158 0.170158 1.53289e-05 -1.13687e-13 0 4 -0.616211 13.8454 -8.89454 
